<?xml version="1.0" standalone="no"?>
<!DOCTYPE svg PUBLIC "-//W3C//DTD SVG 20010904//EN"
 "http://www.w3.org/TR/2001/REC-SVG-20010904/DTD/svg10.dtd">
<svg version="1.0" xmlns="http://www.w3.org/2000/svg"
 width="1796.000000pt" height="872.000000pt" viewBox="0 0 1796.000000 872.000000"
 preserveAspectRatio="xMidYMid meet">

<g transform="translate(0.000000,872.000000) scale(0.100000,-0.100000)"
 fill="#FFCF40"  stroke="none">
<path d="M4460 8704 c-19 -2 -78 -9 -130 -15 -441 -49 -747 -213 -867 -464
-187 -393 56 -1009 690 -1749 338 -395 815 -849 1355 -1289 l143 -117 157 0
c86 0 152 4 146 8 -5 5 -72 55 -149 112 -738 545 -1362 1114 -1743 1589 -192
238 -355 514 -416 702 -70 218 -58 399 36 539 213 320 878 410 1888 254 1777
-273 4498 -1316 6985 -2676 2367 -1295 4245 -2718 4920 -3728 481 -720 349
-1161 -385 -1290 -161 -28 -507 -38 -741 -21 -618 45 -1384 204 -2273 472
-322 97 -988 321 -1229 414 -16 7 -17 -4 -15 -180 l3 -187 145 -54 c239 -90
808 -280 1085 -364 858 -259 1584 -410 2209 -460 166 -13 554 -13 687 0 555
55 896 262 974 592 19 81 19 255 0 355 -39 203 -172 499 -335 747 -1060 1610
-4237 3830 -7645 5341 -1833 813 -3455 1312 -4715 1451 -136 15 -694 28 -780
18z"/>
<path d="M15907 7058 c-4 -236 -7 -284 -26 -357 -39 -152 -104 -239 -230 -305
-107 -56 -168 -67 -418 -73 -179 -5 -223 -8 -223 -19 0 -11 27 -14 133 -14
422 0 600 -66 696 -258 56 -112 63 -162 68 -459 5 -255 6 -273 23 -273 17 0
18 18 23 278 3 219 7 289 21 337 41 148 115 244 229 299 104 51 199 67 440 73
164 5 207 9 207 20 0 10 -33 13 -163 13 -89 0 -201 5 -247 10 -262 32 -399
142 -466 375 -13 48 -18 115 -21 343 -5 263 -6 282 -23 282 -17 0 -18 -18 -23
-272z"/>
<path d="M3569 4005 c-230 -37 -432 -120 -589 -241 -77 -58 -198 -187 -249
-263 -103 -152 -177 -351 -207 -555 -22 -153 -15 -480 14 -614 100 -456 374
-771 792 -911 157 -53 298 -73 510 -74 339 0 580 65 809 217 257 171 429 437
502 774 30 140 37 435 15 595 -79 563 -425 938 -974 1058 -127 28 -490 36
-623 14z m467 -386 c291 -40 520 -199 640 -444 82 -169 118 -395 96 -613 -36
-365 -189 -602 -473 -737 -255 -120 -672 -118 -924 5 -170 83 -290 204 -371
376 -75 156 -89 234 -88 484 0 188 3 225 22 292 51 185 105 281 227 403 128
129 258 194 459 230 89 16 310 18 412 4z"/>
<path d="M20 2685 l0 -1275 200 0 200 0 0 580 0 580 700 0 700 0 0 -580 0
-580 200 0 200 0 0 1275 0 1275 -200 0 -200 0 0 -500 0 -500 -700 0 -700 0 0
500 0 500 -200 0 -200 0 0 -1275z"/>
<path d="M5190 3770 l0 -190 465 0 465 0 0 -1085 0 -1085 200 0 200 0 0 1085
0 1085 465 0 465 0 0 190 0 190 -1130 0 -1130 0 0 -190z"/>
<path d="M7580 2685 l0 -1275 995 0 995 0 0 190 0 190 -797 2 -798 3 -3 358
-2 357 740 0 740 0 0 195 0 195 -740 0 -740 0 2 338 3 337 798 3 797 2 0 190
0 190 -995 0 -995 0 0 -1275z"/>
<path d="M9860 2685 l0 -1275 950 0 950 0 0 190 0 190 -752 2 -753 3 -3 1083
-2 1082 -195 0 -195 0 0 -1275z"/>
<path d="M287 890 c-186 -66 -279 -208 -279 -425 1 -214 94 -363 269 -428 45
-16 82 -21 163 -21 122 -1 183 16 254 70 l46 35 0 -46 0 -45 60 0 60 0 0 235
0 235 -195 0 -195 0 0 -60 0 -60 125 0 125 0 0 -29 c0 -100 -111 -194 -245
-208 -204 -21 -347 129 -332 350 9 138 81 239 191 272 60 18 174 19 229 3 59
-18 123 -83 139 -141 l12 -47 69 0 69 0 -7 43 c-18 112 -85 199 -194 251 -61
28 -75 31 -186 34 -100 2 -130 -1 -178 -18z"/>
<path d="M2068 891 c-77 -25 -118 -52 -177 -116 -167 -184 -134 -550 63 -684
96 -66 255 -96 381 -72 85 16 177 62 230 116 121 121 155 339 83 532 -30 81
-130 181 -213 213 -84 33 -282 39 -367 11z m295 -127 c109 -37 176 -138 185
-276 11 -181 -64 -294 -221 -334 -158 -41 -313 19 -373 143 -36 74 -45 201
-19 288 20 72 97 153 165 178 60 21 203 22 263 1z"/>
<path d="M970 460 l0 -430 70 0 70 0 0 175 0 175 179 0 c186 0 234 -8 252 -41
5 -11 14 -70 19 -130 5 -61 14 -126 20 -145 l12 -34 79 0 c43 0 79 2 79 5 0 3
-9 19 -21 34 -16 22 -24 57 -34 157 -15 145 -18 156 -51 200 l-23 32 21 18
c37 34 58 93 58 172 0 85 -19 132 -74 180 -63 55 -109 62 -398 62 l-258 0 0
-430z m531 288 c20 -9 44 -26 53 -39 19 -27 21 -97 4 -134 -23 -52 -56 -60
-260 -63 l-188 -4 0 133 0 132 178 -5 c128 -4 187 -9 213 -20z"/>
<path d="M2790 581 c0 -365 4 -384 85 -467 75 -77 137 -98 290 -98 100 0 129
4 176 22 72 29 133 82 167 146 l27 51 3 328 3 327 -65 0 -66 0 0 -277 c0 -153
-5 -298 -11 -322 -24 -104 -91 -145 -234 -145 -140 0 -206 39 -234 139 -7 25
-11 147 -11 323 l0 282 -65 0 -65 0 0 -309z"/>
<path d="M3680 460 l0 -430 70 0 70 0 0 164 0 163 163 6 c132 4 173 9 219 26
108 41 148 97 156 216 6 99 -10 150 -67 206 -71 71 -108 79 -383 79 l-228 0 0
-430z m413 300 c104 -15 127 -38 127 -130 0 -56 -13 -91 -41 -108 -28 -18
-140 -32 -256 -32 l-103 0 0 140 0 140 103 0 c56 0 132 -5 170 -10z"/>
<path d="M4450 460 l0 -430 340 0 340 0 0 65 0 65 -270 0 -270 0 0 125 0 125
250 0 250 0 0 60 0 60 -250 0 -250 0 0 120 0 120 270 0 270 0 0 60 0 60 -340
0 -340 0 0 -430z"/>
</g>
</svg>
