<!-- icon666.com - MILLIONS vector ICONS FREE --><svg version="1.1" id="Capa_1" xmlns="http://www.w3.org/2000/svg" xmlns:xlink="http://www.w3.org/1999/xlink" x="0px" y="0px" viewBox="0 0 57 57" style="enable-background:new 0 0 57 57;" xml:space="preserve"><g><g><path d="M54.999,8H2.001C0.898,8,0,8.899,0,10.003v36.994C0,48.102,0.898,49,2.001,49h52.997C56.102,49,57,48.102,57,46.997 V10.003C57,8.899,56.102,8,54.999,8z M54.999,47L2,46.997V10.003L2.001,10L55,10.003L54.999,47z"></path><path d="M5.003,46h20.994C27.102,46,28,45.1,28,43.994V13.006C28,11.9,27.102,11,25.997,11H5.003C3.898,11,3,11.9,3,13.006v30.988 C3,45.1,3.898,46,5.003,46z M5,13l0.003-0.006L26,13l-0.003,31L5,43.994V13z"></path><path d="M31.003,46h20.994C53.102,46,54,45.1,54,43.994V13.006C54,11.9,53.102,11,51.997,11H31.003C29.898,11,29,11.9,29,13.006 v30.988C29,45.1,29.898,46,31.003,46z M31,13.006h21L51.997,44L31,43.994V13.006z"></path><path d="M8.707,19.707l3-3c0.391-0.391,0.391-1.023,0-1.414c-0.391-0.391-1.023-0.391-1.414,0l-3,3 c-0.391,0.391-0.391,1.023,0,1.414C7.488,19.902,7.744,20,8,20C8.256,20,8.512,19.902,8.707,19.707z"></path><path d="M48.293,37.293l-1,1c-0.391,0.391-0.391,1.023,0,1.414C47.488,39.902,47.744,40,48,40s0.512-0.098,0.707-0.293l1-1 c0.391-0.391,0.391-1.023,0-1.414S48.684,36.902,48.293,37.293z"></path><path d="M48.707,33.293c-0.391-0.391-1.023-0.391-1.414,0l-7,7c-0.391,0.391-0.391,1.023,0,1.414C40.488,41.902,40.744,42,41,42 s0.512-0.098,0.707-0.293l7-7C49.098,34.316,49.098,33.684,48.707,33.293z"></path><path d="M45.29,40.29C45.11,40.48,45,40.73,45,41c0,0.13,0.03,0.26,0.08,0.38c0.05,0.13,0.12,0.24,0.21,0.33 C45.48,41.89,45.74,42,46,42c0.26,0,0.52-0.11,0.71-0.29c0.09-0.1,0.16-0.2,0.21-0.33C46.97,41.26,47,41.13,47,41 c0-0.26-0.11-0.52-0.29-0.71C46.33,39.92,45.66,39.92,45.29,40.29z"></path><path d="M9.293,22.293l-1,1c-0.391,0.391-0.391,1.023,0,1.414C8.488,24.902,8.744,25,9,25s0.512-0.098,0.707-0.293l1-1 c0.391-0.391,0.391-1.023,0-1.414C10.316,21.902,9.684,21.902,9.293,22.293z"></path><path d="M16.293,15.293l-4.528,4.528c-0.391,0.391-0.391,1.023,0,1.414c0.195,0.195,0.451,0.293,0.707,0.293 s0.512-0.098,0.707-0.293l4.528-4.528c0.391-0.391,0.391-1.023,0-1.414C17.316,14.902,16.684,14.902,16.293,15.293z"></path></g></g></svg>