<!-- icon666.com - MILLIONS vector ICONS FREE --><svg version="1.1" id="Capa_1" fill='#CFB53B' xmlns="http://www.w3.org/2000/svg" xmlns:xlink="http://www.w3.org/1999/xlink" x="0px" y="0px" viewBox="0 0 60 60" style="enable-background:new 0 0 60 60;" xml:space="preserve"><g><g><rect x="42" y="56.65" width="18" height="2"></rect><path d="M27,51.65c0-0.6-0.4-1-1-1h-3v-7.9c0.4,0,0.8-0.1,1.2-0.1c2.6,0,3.8,0.8,5.2,1.8c1.5,1,3.2,2.2,6.4,2.2s4.9-1.2,6.4-2.2 c1.4-1,2.6-1.8,5.2-1.8s3.8,0.8,5.2,1.8c1.5,1,3.2,2.2,6.4,2.2v-2c-2.6,0-3.8-0.8-5.2-1.8c-1.5-1-3.2-2.2-6.4-2.2 s-4.9,1.2-6.4,2.2c-1.4,1-2.6,1.8-5.2,1.8s-3.8-0.8-5.2-1.8c-1.5-1-3.2-2.2-6.4-2.2c-0.4,0-0.8,0-1.2,0.1v-17.1h18.7 c0.6,0,1-0.4,1-1v-0.3c0-11.6-9.4-21-21-21s-21,9.4-21,21v0.3c0,0.6,0.4,1,1,1H21v17.5c-1.3,0.4-2.3,1.1-3.2,1.7 c-1.4,1-2.6,1.8-5.2,1.8c-2.6,0-3.8-0.8-5.2-1.8c-1.5-1-3.2-2.2-6.4-2.2v2c2.6,0,3.8,0.8,5.2,1.8c1.5,1,3.2,2.2,6.4,2.2 s4.9-1.2,6.4-2.2c0.7-0.5,1.3-0.9,2-1.2v7.4h-3c-0.6,0-1,0.4-1,1v5H5v2h13h8h13v-2H27V51.65z M21,4.75v16.9h-9.1 C12.4,13.45,18.1,7.35,21,4.75z M23,4.55c2.8,2.1,8.5,7.6,8.9,17.1H23V4.55z M40.7,21.65h-6.8c-0.3-9.5-5.5-15.3-8.8-18 C33.8,5.25,40.3,12.65,40.7,21.65z M19.4,3.55c-3.2,2.9-9,9.4-9.4,18.1H2.8C3.1,12.25,10.2,4.65,19.4,3.55z M19,56.65v-4h6v4H19z"></path><rect y="56.65" width="3" height="2"></rect><path d="M50.5,14.45c3.3,0,6-2.7,6-6s-2.7-6-6-6s-6,2.7-6,6S47.2,14.45,50.5,14.45z M50.5,4.45c2.2,0,4,1.8,4,4s-1.8,4-4,4 s-4-1.8-4-4S48.3,4.45,50.5,4.45z"></path><polygon points="56,35.65 56,33.65 58,33.65 58,31.65 55,31.65 52,31.65 52,33.65 54,33.65 54,35.65 "></polygon><polygon points="41,29.65 43,29.65 43,31.65 45,31.65 45,29.65 47,29.65 47,27.65 44,27.65 41,27.65 "></polygon><polygon points="33,37.65 33,35.65 35,35.65 35,33.65 32,33.65 29,33.65 29,35.65 31,35.65 31,37.65 "></polygon><polygon points="10,31.65 10,29.65 12,29.65 12,27.65 9,27.65 6,27.65 6,29.65 8,29.65 8,31.65 "></polygon></g></g></svg>