<!-- icon666.com - MILLIONS vector ICONS FREE --><svg version="1.1" id="Capa_1" fill='#CFB53B' xmlns="http://www.w3.org/2000/svg" xmlns:xlink="http://www.w3.org/1999/xlink" x="0px" y="0px" viewBox="0 0 512 512" style="enable-background:new 0 0 512 512;" xml:space="preserve"><g><g><path d="M238.5,122c-17.92,0-32.5,14.579-32.5,32.5s14.58,32.5,32.5,32.5c17.92,0,32.5-14.579,32.5-32.5S256.42,122,238.5,122z M238.5,172c-9.649,0-17.5-7.851-17.5-17.5s7.851-17.5,17.5-17.5s17.5,7.851,17.5,17.5S248.149,172,238.5,172z"></path></g></g><g><g><path d="M158.5,122c-17.92,0-32.5,14.579-32.5,32.5s14.58,32.5,32.5,32.5s32.5-14.579,32.5-32.5S176.42,122,158.5,122z M158.5,172 c-9.649,0-17.5-7.851-17.5-17.5s7.851-17.5,17.5-17.5s17.5,7.851,17.5,17.5S168.149,172,158.5,172z"></path></g></g><g><g><path d="M78.5,122C60.58,122,46,136.579,46,154.5S60.58,187,78.5,187s32.5-14.579,32.5-32.5S96.42,122,78.5,122z M78.5,172 c-9.649,0-17.5-7.851-17.5-17.5S68.851,137,78.5,137S96,144.851,96,154.5S88.149,172,78.5,172z"></path></g></g><g><g><path d="M354.5,292h-15c-4.142,0-7.5,3.357-7.5,7.5s3.358,7.5,7.5,7.5h15c4.142,0,7.5-3.357,7.5-7.5S358.642,292,354.5,292z"></path></g></g><g><g><path d="M394.489,378.5C378.229,378.5,365,391.733,365,408c0,16.267,13.229,29.5,29.489,29.5C410.762,437.5,424,424.267,424,408 C424,391.733,410.762,378.5,394.489,378.5z M394.489,422.5C386.5,422.5,380,415.995,380,408s6.5-14.5,14.489-14.5 c8.001,0,14.511,6.505,14.511,14.5S402.491,422.5,394.489,422.5z"></path></g></g><g><g><path d="M117.489,378.5C101.229,378.5,88,391.733,88,408c0,16.267,13.229,29.5,29.489,29.5C133.762,437.5,147,424.267,147,408 C147,391.733,133.762,378.5,117.489,378.5z M117.489,422.5C109.5,422.5,103,415.995,103,408s6.5-14.5,14.489-14.5 c8.001,0,14.511,6.505,14.511,14.5S125.491,422.5,117.489,422.5z"></path></g></g><g><g><path d="M476.737,270.88l-38.038-8.15l-48.996-61.653c-6.605-8.31-19.59-14.576-30.204-14.576H317V79 c0-20.678-16.822-37.5-37.5-37.5h-242C16.822,41.5,0,58.322,0,79v329c0,4.143,3.358,7.5,7.5,7.5h47.966 c3.719,30.937,30.111,55,62.034,55c34.462,0,62.5-28.037,62.5-62.5s-28.038-62.5-62.5-62.5c-31.923,0-58.315,24.063-62.034,55H15 V307h287v93.5h-99.5c-4.142,0-7.5,3.357-7.5,7.5s3.358,7.5,7.5,7.5h129.966c3.719,30.937,30.111,55,62.034,55 c31.923,0,58.315-24.063,62.034-55H489.5c12.407,0,22.5-10.094,22.5-22.5v-78.5C512,294.614,496.181,275.047,476.737,270.88z M117.5,360.5c26.191,0,47.5,21.309,47.5,47.5c0,26.191-21.309,47.5-47.5,47.5S70,434.191,70,408 C70,381.809,91.309,360.5,117.5,360.5z M15,247h31v15H15V247z M302,292H15v-15h287V292z M96,247v15H61v-15H96z M61,232v-15h35v15 H61z M111,262v-15h15v15H111z M176,247v15h-35v-15H176z M141,232v-15h35v15H141z M191,262v-15h15v15H191z M256,247v15h-35v-15H256 z M221,232v-15h35v15H221z M302,262h-31v-15h31V262z M302,232h-31v-22.5c0-4.143-3.358-7.5-7.5-7.5h-50 c-4.142,0-7.5,3.357-7.5,7.5V232h-15v-22.5c0-4.143-3.358-7.5-7.5-7.5h-50c-4.142,0-7.5,3.357-7.5,7.5V232h-15v-22.5 c0-4.143-3.358-7.5-7.5-7.5h-50c-4.142,0-7.5,3.357-7.5,7.5V232H15V101.5h287V232z M302,86.5H15V79 c0-12.406,10.093-22.5,22.5-22.5h242c12.407,0,22.5,10.094,22.5,22.5V86.5z M317,239.51c0-0.02,0-38.01,0-38.01h42.5 c5.956,0,14.755,4.247,18.461,8.909L418.96,262H317V239.51z M394.5,455.5c-26.191,0-47.5-21.309-47.5-47.5 c0-26.191,21.309-47.5,47.5-47.5c26.191,0,47.5,21.309,47.5,47.5C442,434.191,420.691,455.5,394.5,455.5z M497,393 c0,4.136-3.364,7.5-7.5,7.5h-32.966c-1.09-9.067-4.114-17.547-8.67-25H497V393z M497,360.5h-61.947 c-10.925-9.341-25.086-15-40.553-15c-31.923,0-58.315,24.063-62.034,55H317V299.51c0-0.02,0-22.51,0-22.51h116.703l39.891,8.548 C486.282,288.266,497,301.524,497,314.5V360.5z"></path></g></g></svg>